<?xml version="1.0" encoding="UTF-8"?>
<svg xmlns="http://www.w3.org/2000/svg" width="1080" height="840" viewBox="0 0 1080 840" font-family="system-ui,sans-serif">
<rect width="1080" height="840" fill="#fff" rx="6"/>
<text x="72" y="24" font-size="15" font-weight="600" fill="#1e293b">hdi benchmark - median parse time</text>
<line x1="72" y1="790.0" x2="970" y2="790.0" stroke="#e2e8f0" stroke-width="1"/>
<text x="64" y="794.0" text-anchor="end" font-size="11" fill="#64748b">0</text>
<line x1="72" y1="760.2" x2="970" y2="760.2" stroke="#e2e8f0" stroke-width="1"/>
<text x="64" y="764.2" text-anchor="end" font-size="11" fill="#64748b">50</text>
<line x1="72" y1="730.3" x2="970" y2="730.3" stroke="#e2e8f0" stroke-width="1"/>
<text x="64" y="734.3" text-anchor="end" font-size="11" fill="#64748b">100</text>
<line x1="72" y1="700.5" x2="970" y2="700.5" stroke="#e2e8f0" stroke-width="1"/>
<text x="64" y="704.5" text-anchor="end" font-size="11" fill="#64748b">150</text>
<line x1="72" y1="670.6" x2="970" y2="670.6" stroke="#e2e8f0" stroke-width="1"/>
<text x="64" y="674.6" text-anchor="end" font-size="11" fill="#64748b">200</text>
<line x1="72" y1="640.8" x2="970" y2="640.8" stroke="#e2e8f0" stroke-width="1"/>
<text x="64" y="644.8" text-anchor="end" font-size="11" fill="#64748b">250</text>
<line x1="72" y1="611.0" x2="970" y2="611.0" stroke="#e2e8f0" stroke-width="1"/>
<text x="64" y="615.0" text-anchor="end" font-size="11" fill="#64748b">300</text>
<line x1="72" y1="581.1" x2="970" y2="581.1" stroke="#e2e8f0" stroke-width="1"/>
<text x="64" y="585.1" text-anchor="end" font-size="11" fill="#64748b">350</text>
<line x1="72" y1="551.3" x2="970" y2="551.3" stroke="#e2e8f0" stroke-width="1"/>
<text x="64" y="555.3" text-anchor="end" font-size="11" fill="#64748b">400</text>
<line x1="72" y1="521.4" x2="970" y2="521.4" stroke="#e2e8f0" stroke-width="1"/>
<text x="64" y="525.4" text-anchor="end" font-size="11" fill="#64748b">450</text>
<line x1="72" y1="491.6" x2="970" y2="491.6" stroke="#e2e8f0" stroke-width="1"/>
<text x="64" y="495.6" text-anchor="end" font-size="11" fill="#64748b">500</text>
<line x1="72" y1="461.8" x2="970" y2="461.8" stroke="#e2e8f0" stroke-width="1"/>
<text x="64" y="465.8" text-anchor="end" font-size="11" fill="#64748b">550</text>
<line x1="72" y1="431.9" x2="970" y2="431.9" stroke="#e2e8f0" stroke-width="1"/>
<text x="64" y="435.9" text-anchor="end" font-size="11" fill="#64748b">600</text>
<line x1="72" y1="402.1" x2="970" y2="402.1" stroke="#e2e8f0" stroke-width="1"/>
<text x="64" y="406.1" text-anchor="end" font-size="11" fill="#64748b">650</text>
<line x1="72" y1="372.2" x2="970" y2="372.2" stroke="#e2e8f0" stroke-width="1"/>
<text x="64" y="376.2" text-anchor="end" font-size="11" fill="#64748b">700</text>
<line x1="72" y1="342.4" x2="970" y2="342.4" stroke="#e2e8f0" stroke-width="1"/>
<text x="64" y="346.4" text-anchor="end" font-size="11" fill="#64748b">750</text>
<line x1="72" y1="312.6" x2="970" y2="312.6" stroke="#e2e8f0" stroke-width="1"/>
<text x="64" y="316.6" text-anchor="end" font-size="11" fill="#64748b">800</text>
<line x1="72" y1="282.7" x2="970" y2="282.7" stroke="#e2e8f0" stroke-width="1"/>
<text x="64" y="286.7" text-anchor="end" font-size="11" fill="#64748b">850</text>
<line x1="72" y1="252.9" x2="970" y2="252.9" stroke="#e2e8f0" stroke-width="1"/>
<text x="64" y="256.9" text-anchor="end" font-size="11" fill="#64748b">900</text>
<line x1="72" y1="223.0" x2="970" y2="223.0" stroke="#e2e8f0" stroke-width="1"/>
<text x="64" y="227.0" text-anchor="end" font-size="11" fill="#64748b">950</text>
<line x1="72" y1="193.2" x2="970" y2="193.2" stroke="#e2e8f0" stroke-width="1"/>
<text x="64" y="197.2" text-anchor="end" font-size="11" fill="#64748b">1000</text>
<line x1="72" y1="163.4" x2="970" y2="163.4" stroke="#e2e8f0" stroke-width="1"/>
<text x="64" y="167.4" text-anchor="end" font-size="11" fill="#64748b">1050</text>
<line x1="72" y1="133.5" x2="970" y2="133.5" stroke="#e2e8f0" stroke-width="1"/>
<text x="64" y="137.5" text-anchor="end" font-size="11" fill="#64748b">1100</text>
<line x1="72" y1="103.7" x2="970" y2="103.7" stroke="#e2e8f0" stroke-width="1"/>
<text x="64" y="107.7" text-anchor="end" font-size="11" fill="#64748b">1150</text>
<line x1="72" y1="73.8" x2="970" y2="73.8" stroke="#e2e8f0" stroke-width="1"/>
<text x="64" y="77.8" text-anchor="end" font-size="11" fill="#64748b">1200</text>
<line x1="72" y1="44.0" x2="970" y2="44.0" stroke="#e2e8f0" stroke-width="1"/>
<text x="64" y="48.0" text-anchor="end" font-size="11" fill="#64748b">1250</text>
<text x="14" y="417" font-size="11" fill="#64748b" transform="rotate(-90,14,417)">ms</text>
<text x="72.0" y="810" text-anchor="middle" font-size="11" fill="#64748b">0.7.0</text>
<text x="114.8" y="810" text-anchor="middle" font-size="11" fill="#64748b">0.8.0</text>
<text x="157.5" y="810" text-anchor="middle" font-size="11" fill="#64748b">0.9.0</text>
<text x="200.3" y="810" text-anchor="middle" font-size="11" fill="#64748b">0.10.0</text>
<text x="243.0" y="810" text-anchor="middle" font-size="11" fill="#64748b">0.11.0</text>
<text x="285.8" y="810" text-anchor="middle" font-size="11" fill="#64748b">0.12.0</text>
<text x="328.6" y="810" text-anchor="middle" font-size="11" fill="#64748b">0.13.0</text>
<text x="371.3" y="810" text-anchor="middle" font-size="11" fill="#64748b">0.14.0</text>
<text x="414.1" y="810" text-anchor="middle" font-size="11" fill="#64748b">0.15.0</text>
<text x="456.9" y="810" text-anchor="middle" font-size="11" fill="#64748b">0.16.0</text>
<text x="499.6" y="810" text-anchor="middle" font-size="11" fill="#64748b">0.17.0</text>
<text x="542.4" y="810" text-anchor="middle" font-size="11" fill="#64748b">0.17.1</text>
<text x="585.1" y="810" text-anchor="middle" font-size="11" fill="#64748b">0.17.2</text>
<text x="627.9" y="810" text-anchor="middle" font-size="11" fill="#64748b">0.18.0</text>
<text x="670.7" y="810" text-anchor="middle" font-size="11" fill="#64748b">0.18.1</text>
<text x="713.4" y="810" text-anchor="middle" font-size="11" fill="#64748b">0.18.2</text>
<text x="756.2" y="810" text-anchor="middle" font-size="11" fill="#64748b">0.18.3</text>
<text x="799.0" y="810" text-anchor="middle" font-size="11" fill="#64748b">0.18.4</text>
<text x="841.7" y="810" text-anchor="middle" font-size="11" fill="#64748b">0.18.5</text>
<text x="884.5" y="810" text-anchor="middle" font-size="11" fill="#64748b">0.19.0</text>
<text x="927.2" y="810" text-anchor="middle" font-size="11" fill="#64748b">0.19.1</text>
<text x="970.0" y="810" text-anchor="middle" font-size="11" fill="#64748b">0.20.0</text>
<text x="521" y="830" text-anchor="middle" font-size="11" fill="#64748b">release</text>
<polyline fill="none" stroke="#2563eb" stroke-width="2" stroke-linejoin="round" points="72.0,731.0 114.8,730.1 157.5,728.6 200.3,776.7 243.0,777.3 285.8,776.1 328.6,778.0 371.3,777.9 414.1,776.3 456.9,777.1 499.6,777.2 542.4,777.3 585.1,777.7 627.9,777.3 670.7,777.5 713.4,777.1 756.2,777.5 799.0,777.3 841.7,776.5 884.5,776.2 927.2,777.4 970.0,761.9"/>
<circle cx="72.0" cy="731.0" r="3.5" fill="#2563eb" stroke="#fff" stroke-width="1.5"/>
<circle cx="114.8" cy="730.1" r="3.5" fill="#2563eb" stroke="#fff" stroke-width="1.5"/>
<circle cx="157.5" cy="728.6" r="3.5" fill="#2563eb" stroke="#fff" stroke-width="1.5"/>
<circle cx="200.3" cy="776.7" r="3.5" fill="#2563eb" stroke="#fff" stroke-width="1.5"/>
<circle cx="243.0" cy="777.3" r="3.5" fill="#2563eb" stroke="#fff" stroke-width="1.5"/>
<circle cx="285.8" cy="776.1" r="3.5" fill="#2563eb" stroke="#fff" stroke-width="1.5"/>
<circle cx="328.6" cy="778.0" r="3.5" fill="#2563eb" stroke="#fff" stroke-width="1.5"/>
<circle cx="371.3" cy="777.9" r="3.5" fill="#2563eb" stroke="#fff" stroke-width="1.5"/>
<circle cx="414.1" cy="776.3" r="3.5" fill="#2563eb" stroke="#fff" stroke-width="1.5"/>
<circle cx="456.9" cy="777.1" r="3.5" fill="#2563eb" stroke="#fff" stroke-width="1.5"/>
<circle cx="499.6" cy="777.2" r="3.5" fill="#2563eb" stroke="#fff" stroke-width="1.5"/>
<circle cx="542.4" cy="777.3" r="3.5" fill="#2563eb" stroke="#fff" stroke-width="1.5"/>
<circle cx="585.1" cy="777.7" r="3.5" fill="#2563eb" stroke="#fff" stroke-width="1.5"/>
<circle cx="627.9" cy="777.3" r="3.5" fill="#2563eb" stroke="#fff" stroke-width="1.5"/>
<circle cx="670.7" cy="777.5" r="3.5" fill="#2563eb" stroke="#fff" stroke-width="1.5"/>
<circle cx="713.4" cy="777.1" r="3.5" fill="#2563eb" stroke="#fff" stroke-width="1.5"/>
<circle cx="756.2" cy="777.5" r="3.5" fill="#2563eb" stroke="#fff" stroke-width="1.5"/>
<circle cx="799.0" cy="777.3" r="3.5" fill="#2563eb" stroke="#fff" stroke-width="1.5"/>
<circle cx="841.7" cy="776.5" r="3.5" fill="#2563eb" stroke="#fff" stroke-width="1.5"/>
<circle cx="884.5" cy="776.2" r="3.5" fill="#2563eb" stroke="#fff" stroke-width="1.5"/>
<circle cx="927.2" cy="777.4" r="3.5" fill="#2563eb" stroke="#fff" stroke-width="1.5"/>
<circle cx="970.0" cy="761.9" r="3.5" fill="#2563eb" stroke="#fff" stroke-width="1.5"/>
<polyline fill="none" stroke="#16a34a" stroke-width="2" stroke-linejoin="round" points="72.0,511.4 114.8,506.6 157.5,490.2 200.3,759.0 243.0,762.2 285.8,759.0 328.6,762.0 371.3,762.2 414.1,759.4 456.9,759.1 499.6,760.9 542.4,761.0 585.1,761.4 627.9,759.3 670.7,761.1 713.4,761.4 756.2,761.3 799.0,760.2 841.7,760.8 884.5,760.2 927.2,761.2 970.0,750.5"/>
<circle cx="72.0" cy="511.4" r="3.5" fill="#16a34a" stroke="#fff" stroke-width="1.5"/>
<circle cx="114.8" cy="506.6" r="3.5" fill="#16a34a" stroke="#fff" stroke-width="1.5"/>
<circle cx="157.5" cy="490.2" r="3.5" fill="#16a34a" stroke="#fff" stroke-width="1.5"/>
<circle cx="200.3" cy="759.0" r="3.5" fill="#16a34a" stroke="#fff" stroke-width="1.5"/>
<circle cx="243.0" cy="762.2" r="3.5" fill="#16a34a" stroke="#fff" stroke-width="1.5"/>
<circle cx="285.8" cy="759.0" r="3.5" fill="#16a34a" stroke="#fff" stroke-width="1.5"/>
<circle cx="328.6" cy="762.0" r="3.5" fill="#16a34a" stroke="#fff" stroke-width="1.5"/>
<circle cx="371.3" cy="762.2" r="3.5" fill="#16a34a" stroke="#fff" stroke-width="1.5"/>
<circle cx="414.1" cy="759.4" r="3.5" fill="#16a34a" stroke="#fff" stroke-width="1.5"/>
<circle cx="456.9" cy="759.1" r="3.5" fill="#16a34a" stroke="#fff" stroke-width="1.5"/>
<circle cx="499.6" cy="760.9" r="3.5" fill="#16a34a" stroke="#fff" stroke-width="1.5"/>
<circle cx="542.4" cy="761.0" r="3.5" fill="#16a34a" stroke="#fff" stroke-width="1.5"/>
<circle cx="585.1" cy="761.4" r="3.5" fill="#16a34a" stroke="#fff" stroke-width="1.5"/>
<circle cx="627.9" cy="759.3" r="3.5" fill="#16a34a" stroke="#fff" stroke-width="1.5"/>
<circle cx="670.7" cy="761.1" r="3.5" fill="#16a34a" stroke="#fff" stroke-width="1.5"/>
<circle cx="713.4" cy="761.4" r="3.5" fill="#16a34a" stroke="#fff" stroke-width="1.5"/>
<circle cx="756.2" cy="761.3" r="3.5" fill="#16a34a" stroke="#fff" stroke-width="1.5"/>
<circle cx="799.0" cy="760.2" r="3.5" fill="#16a34a" stroke="#fff" stroke-width="1.5"/>
<circle cx="841.7" cy="760.8" r="3.5" fill="#16a34a" stroke="#fff" stroke-width="1.5"/>
<circle cx="884.5" cy="760.2" r="3.5" fill="#16a34a" stroke="#fff" stroke-width="1.5"/>
<circle cx="927.2" cy="761.2" r="3.5" fill="#16a34a" stroke="#fff" stroke-width="1.5"/>
<circle cx="970.0" cy="750.5" r="3.5" fill="#16a34a" stroke="#fff" stroke-width="1.5"/>
<polyline fill="none" stroke="#ea580c" stroke-width="2" stroke-linejoin="round" points="72.0,243.7 114.8,199.3 157.5,208.8 200.3,733.2 243.0,731.3 285.8,728.4 328.6,730.8 371.3,730.6 414.1,728.6 456.9,725.7 499.6,728.8 542.4,729.0 585.1,729.2 627.9,727.6 670.7,728.8 713.4,728.6 756.2,728.8 799.0,729.2 841.7,727.9 884.5,728.8 927.2,728.2 970.0,717.7"/>
<circle cx="72.0" cy="243.7" r="3.5" fill="#ea580c" stroke="#fff" stroke-width="1.5"/>
<circle cx="114.8" cy="199.3" r="3.5" fill="#ea580c" stroke="#fff" stroke-width="1.5"/>
<circle cx="157.5" cy="208.8" r="3.5" fill="#ea580c" stroke="#fff" stroke-width="1.5"/>
<circle cx="200.3" cy="733.2" r="3.5" fill="#ea580c" stroke="#fff" stroke-width="1.5"/>
<circle cx="243.0" cy="731.3" r="3.5" fill="#ea580c" stroke="#fff" stroke-width="1.5"/>
<circle cx="285.8" cy="728.4" r="3.5" fill="#ea580c" stroke="#fff" stroke-width="1.5"/>
<circle cx="328.6" cy="730.8" r="3.5" fill="#ea580c" stroke="#fff" stroke-width="1.5"/>
<circle cx="371.3" cy="730.6" r="3.5" fill="#ea580c" stroke="#fff" stroke-width="1.5"/>
<circle cx="414.1" cy="728.6" r="3.5" fill="#ea580c" stroke="#fff" stroke-width="1.5"/>
<circle cx="456.9" cy="725.7" r="3.5" fill="#ea580c" stroke="#fff" stroke-width="1.5"/>
<circle cx="499.6" cy="728.8" r="3.5" fill="#ea580c" stroke="#fff" stroke-width="1.5"/>
<circle cx="542.4" cy="729.0" r="3.5" fill="#ea580c" stroke="#fff" stroke-width="1.5"/>
<circle cx="585.1" cy="729.2" r="3.5" fill="#ea580c" stroke="#fff" stroke-width="1.5"/>
<circle cx="627.9" cy="727.6" r="3.5" fill="#ea580c" stroke="#fff" stroke-width="1.5"/>
<circle cx="670.7" cy="728.8" r="3.5" fill="#ea580c" stroke="#fff" stroke-width="1.5"/>
<circle cx="713.4" cy="728.6" r="3.5" fill="#ea580c" stroke="#fff" stroke-width="1.5"/>
<circle cx="756.2" cy="728.8" r="3.5" fill="#ea580c" stroke="#fff" stroke-width="1.5"/>
<circle cx="799.0" cy="729.2" r="3.5" fill="#ea580c" stroke="#fff" stroke-width="1.5"/>
<circle cx="841.7" cy="727.9" r="3.5" fill="#ea580c" stroke="#fff" stroke-width="1.5"/>
<circle cx="884.5" cy="728.8" r="3.5" fill="#ea580c" stroke="#fff" stroke-width="1.5"/>
<circle cx="927.2" cy="728.2" r="3.5" fill="#ea580c" stroke="#fff" stroke-width="1.5"/>
<circle cx="970.0" cy="717.7" r="3.5" fill="#ea580c" stroke="#fff" stroke-width="1.5"/>
<polyline fill="none" stroke="#dc2626" stroke-width="2" stroke-linejoin="round" points="72.0,142.9 114.8,154.9 157.5,133.2 200.3,717.4 243.0,723.3 285.8,719.0 328.6,724.2 371.3,724.1 414.1,721.9 456.9,718.8 499.6,722.1 542.4,722.4 585.1,721.6 627.9,721.5 670.7,722.0 713.4,721.0 756.2,722.3 799.0,722.3 841.7,721.4 884.5,721.8 927.2,721.8 970.0,710.1"/>
<circle cx="72.0" cy="142.9" r="3.5" fill="#dc2626" stroke="#fff" stroke-width="1.5"/>
<circle cx="114.8" cy="154.9" r="3.5" fill="#dc2626" stroke="#fff" stroke-width="1.5"/>
<circle cx="157.5" cy="133.2" r="3.5" fill="#dc2626" stroke="#fff" stroke-width="1.5"/>
<circle cx="200.3" cy="717.4" r="3.5" fill="#dc2626" stroke="#fff" stroke-width="1.5"/>
<circle cx="243.0" cy="723.3" r="3.5" fill="#dc2626" stroke="#fff" stroke-width="1.5"/>
<circle cx="285.8" cy="719.0" r="3.5" fill="#dc2626" stroke="#fff" stroke-width="1.5"/>
<circle cx="328.6" cy="724.2" r="3.5" fill="#dc2626" stroke="#fff" stroke-width="1.5"/>
<circle cx="371.3" cy="724.1" r="3.5" fill="#dc2626" stroke="#fff" stroke-width="1.5"/>
<circle cx="414.1" cy="721.9" r="3.5" fill="#dc2626" stroke="#fff" stroke-width="1.5"/>
<circle cx="456.9" cy="718.8" r="3.5" fill="#dc2626" stroke="#fff" stroke-width="1.5"/>
<circle cx="499.6" cy="722.1" r="3.5" fill="#dc2626" stroke="#fff" stroke-width="1.5"/>
<circle cx="542.4" cy="722.4" r="3.5" fill="#dc2626" stroke="#fff" stroke-width="1.5"/>
<circle cx="585.1" cy="721.6" r="3.5" fill="#dc2626" stroke="#fff" stroke-width="1.5"/>
<circle cx="627.9" cy="721.5" r="3.5" fill="#dc2626" stroke="#fff" stroke-width="1.5"/>
<circle cx="670.7" cy="722.0" r="3.5" fill="#dc2626" stroke="#fff" stroke-width="1.5"/>
<circle cx="713.4" cy="721.0" r="3.5" fill="#dc2626" stroke="#fff" stroke-width="1.5"/>
<circle cx="756.2" cy="722.3" r="3.5" fill="#dc2626" stroke="#fff" stroke-width="1.5"/>
<circle cx="799.0" cy="722.3" r="3.5" fill="#dc2626" stroke="#fff" stroke-width="1.5"/>
<circle cx="841.7" cy="721.4" r="3.5" fill="#dc2626" stroke="#fff" stroke-width="1.5"/>
<circle cx="884.5" cy="721.8" r="3.5" fill="#dc2626" stroke="#fff" stroke-width="1.5"/>
<circle cx="927.2" cy="721.8" r="3.5" fill="#dc2626" stroke="#fff" stroke-width="1.5"/>
<circle cx="970.0" cy="710.1" r="3.5" fill="#dc2626" stroke="#fff" stroke-width="1.5"/>
<circle cx="986" cy="48" r="5" fill="#2563eb"/>
<text x="998" y="52" font-size="12" fill="#334155">small</text>
<circle cx="986" cy="70" r="5" fill="#16a34a"/>
<text x="998" y="74" font-size="12" fill="#334155">medium</text>
<circle cx="986" cy="92" r="5" fill="#ea580c"/>
<text x="998" y="96" font-size="12" fill="#334155">large</text>
<circle cx="986" cy="114" r="5" fill="#dc2626"/>
<text x="998" y="118" font-size="12" fill="#334155">stress</text>
</svg>
