<?xml version="1.0" encoding="UTF-8"?>
<svg xmlns="http://www.w3.org/2000/svg" width="1080" height="810" viewBox="0 0 1080 810" font-family="system-ui,sans-serif">
<rect width="1080" height="810" fill="#fff" rx="6"/>
<text x="72" y="28" font-size="15" font-weight="600" fill="#1e293b">hdi benchmark - median parse time</text>
<line x1="72" y1="344.0" x2="970" y2="344.0" stroke="#e2e8f0" stroke-width="1"/>
<text x="64" y="348.0" text-anchor="end" font-size="11" fill="#64748b">0</text>
<line x1="72" y1="332.0" x2="970" y2="332.0" stroke="#e2e8f0" stroke-width="1"/>
<text x="64" y="336.0" text-anchor="end" font-size="11" fill="#64748b">50</text>
<line x1="72" y1="320.0" x2="970" y2="320.0" stroke="#e2e8f0" stroke-width="1"/>
<text x="64" y="324.0" text-anchor="end" font-size="11" fill="#64748b">100</text>
<line x1="72" y1="308.0" x2="970" y2="308.0" stroke="#e2e8f0" stroke-width="1"/>
<text x="64" y="312.0" text-anchor="end" font-size="11" fill="#64748b">150</text>
<line x1="72" y1="296.0" x2="970" y2="296.0" stroke="#e2e8f0" stroke-width="1"/>
<text x="64" y="300.0" text-anchor="end" font-size="11" fill="#64748b">200</text>
<line x1="72" y1="284.0" x2="970" y2="284.0" stroke="#e2e8f0" stroke-width="1"/>
<text x="64" y="288.0" text-anchor="end" font-size="11" fill="#64748b">250</text>
<line x1="72" y1="272.0" x2="970" y2="272.0" stroke="#e2e8f0" stroke-width="1"/>
<text x="64" y="276.0" text-anchor="end" font-size="11" fill="#64748b">300</text>
<line x1="72" y1="260.0" x2="970" y2="260.0" stroke="#e2e8f0" stroke-width="1"/>
<text x="64" y="264.0" text-anchor="end" font-size="11" fill="#64748b">350</text>
<line x1="72" y1="248.0" x2="970" y2="248.0" stroke="#e2e8f0" stroke-width="1"/>
<text x="64" y="252.0" text-anchor="end" font-size="11" fill="#64748b">400</text>
<line x1="72" y1="236.0" x2="970" y2="236.0" stroke="#e2e8f0" stroke-width="1"/>
<text x="64" y="240.0" text-anchor="end" font-size="11" fill="#64748b">450</text>
<line x1="72" y1="224.0" x2="970" y2="224.0" stroke="#e2e8f0" stroke-width="1"/>
<text x="64" y="228.0" text-anchor="end" font-size="11" fill="#64748b">500</text>
<line x1="72" y1="212.0" x2="970" y2="212.0" stroke="#e2e8f0" stroke-width="1"/>
<text x="64" y="216.0" text-anchor="end" font-size="11" fill="#64748b">550</text>
<line x1="72" y1="200.0" x2="970" y2="200.0" stroke="#e2e8f0" stroke-width="1"/>
<text x="64" y="204.0" text-anchor="end" font-size="11" fill="#64748b">600</text>
<line x1="72" y1="188.0" x2="970" y2="188.0" stroke="#e2e8f0" stroke-width="1"/>
<text x="64" y="192.0" text-anchor="end" font-size="11" fill="#64748b">650</text>
<line x1="72" y1="176.0" x2="970" y2="176.0" stroke="#e2e8f0" stroke-width="1"/>
<text x="64" y="180.0" text-anchor="end" font-size="11" fill="#64748b">700</text>
<line x1="72" y1="164.0" x2="970" y2="164.0" stroke="#e2e8f0" stroke-width="1"/>
<text x="64" y="168.0" text-anchor="end" font-size="11" fill="#64748b">750</text>
<line x1="72" y1="152.0" x2="970" y2="152.0" stroke="#e2e8f0" stroke-width="1"/>
<text x="64" y="156.0" text-anchor="end" font-size="11" fill="#64748b">800</text>
<line x1="72" y1="140.0" x2="970" y2="140.0" stroke="#e2e8f0" stroke-width="1"/>
<text x="64" y="144.0" text-anchor="end" font-size="11" fill="#64748b">850</text>
<line x1="72" y1="128.0" x2="970" y2="128.0" stroke="#e2e8f0" stroke-width="1"/>
<text x="64" y="132.0" text-anchor="end" font-size="11" fill="#64748b">900</text>
<line x1="72" y1="116.0" x2="970" y2="116.0" stroke="#e2e8f0" stroke-width="1"/>
<text x="64" y="120.0" text-anchor="end" font-size="11" fill="#64748b">950</text>
<line x1="72" y1="104.0" x2="970" y2="104.0" stroke="#e2e8f0" stroke-width="1"/>
<text x="64" y="108.0" text-anchor="end" font-size="11" fill="#64748b">1000</text>
<line x1="72" y1="92.0" x2="970" y2="92.0" stroke="#e2e8f0" stroke-width="1"/>
<text x="64" y="96.0" text-anchor="end" font-size="11" fill="#64748b">1050</text>
<line x1="72" y1="80.0" x2="970" y2="80.0" stroke="#e2e8f0" stroke-width="1"/>
<text x="64" y="84.0" text-anchor="end" font-size="11" fill="#64748b">1100</text>
<line x1="72" y1="68.0" x2="970" y2="68.0" stroke="#e2e8f0" stroke-width="1"/>
<text x="64" y="72.0" text-anchor="end" font-size="11" fill="#64748b">1150</text>
<line x1="72" y1="56.0" x2="970" y2="56.0" stroke="#e2e8f0" stroke-width="1"/>
<text x="64" y="60.0" text-anchor="end" font-size="11" fill="#64748b">1200</text>
<line x1="72" y1="44.0" x2="970" y2="44.0" stroke="#e2e8f0" stroke-width="1"/>
<text x="64" y="48.0" text-anchor="end" font-size="11" fill="#64748b">1250</text>
<text x="14" y="194" font-size="11" fill="#64748b" transform="rotate(-90,14,194)">ms</text>
<text x="72.0" y="364" text-anchor="middle" font-size="11" fill="#64748b">0.1.0</text>
<text x="104.1" y="364" text-anchor="middle" font-size="11" fill="#64748b">0.2.0</text>
<text x="136.1" y="364" text-anchor="middle" font-size="11" fill="#64748b">0.3.0</text>
<text x="168.2" y="364" text-anchor="middle" font-size="11" fill="#64748b">0.4.0</text>
<text x="200.3" y="364" text-anchor="middle" font-size="11" fill="#64748b">0.5.0</text>
<text x="232.4" y="364" text-anchor="middle" font-size="11" fill="#64748b">0.6.0</text>
<text x="264.4" y="364" text-anchor="middle" font-size="11" fill="#64748b">0.7.0</text>
<text x="296.5" y="364" text-anchor="middle" font-size="11" fill="#64748b">0.8.0</text>
<text x="328.6" y="364" text-anchor="middle" font-size="11" fill="#64748b">0.9.0</text>
<text x="360.6" y="364" text-anchor="middle" font-size="11" fill="#64748b">0.10.0</text>
<text x="392.7" y="364" text-anchor="middle" font-size="11" fill="#64748b">0.11.0</text>
<text x="424.8" y="364" text-anchor="middle" font-size="11" fill="#64748b">0.12.0</text>
<text x="456.9" y="364" text-anchor="middle" font-size="11" fill="#64748b">0.13.0</text>
<text x="488.9" y="364" text-anchor="middle" font-size="11" fill="#64748b">0.14.0</text>
<text x="521.0" y="364" text-anchor="middle" font-size="11" fill="#64748b">0.15.0</text>
<text x="553.1" y="364" text-anchor="middle" font-size="11" fill="#64748b">0.16.0</text>
<text x="585.1" y="364" text-anchor="middle" font-size="11" fill="#64748b">0.17.0</text>
<text x="617.2" y="364" text-anchor="middle" font-size="11" fill="#64748b">0.17.1</text>
<text x="649.3" y="364" text-anchor="middle" font-size="11" fill="#64748b">0.17.2</text>
<text x="681.4" y="364" text-anchor="middle" font-size="11" fill="#64748b">0.18.0</text>
<text x="713.4" y="364" text-anchor="middle" font-size="11" fill="#64748b">0.18.1</text>
<text x="745.5" y="364" text-anchor="middle" font-size="11" fill="#64748b">0.18.2</text>
<text x="777.6" y="364" text-anchor="middle" font-size="11" fill="#64748b">0.18.3</text>
<text x="809.6" y="364" text-anchor="middle" font-size="11" fill="#64748b">0.18.4</text>
<text x="841.7" y="364" text-anchor="middle" font-size="11" fill="#64748b">0.18.5</text>
<text x="873.8" y="364" text-anchor="middle" font-size="11" fill="#64748b">0.19.0</text>
<text x="905.9" y="364" text-anchor="middle" font-size="11" fill="#64748b">0.19.1</text>
<text x="937.9" y="364" text-anchor="middle" font-size="11" fill="#64748b">0.20.0</text>
<text x="970.0" y="364" text-anchor="middle" font-size="11" fill="#64748b">0.21.0</text>
<text x="521" y="384" text-anchor="middle" font-size="11" fill="#64748b">release</text>
<polyline fill="none" stroke="#2563eb" stroke-width="2" stroke-linejoin="round" points="72.0,335.3 104.1,335.5 136.1,335.9 168.2,324.7 200.3,324.5 232.4,324.9 264.4,320.3 296.5,319.9 328.6,319.3 360.6,338.6 392.7,338.9 424.8,338.4 456.9,339.2 488.9,339.1 521.0,338.5 553.1,338.8 585.1,338.9 617.2,338.9 649.3,339.1 681.4,338.9 713.4,339.0 745.5,338.8 777.6,339.0 809.6,338.9 841.7,338.6 873.8,338.5 905.9,338.9 937.9,338.2 970.0,338.4"/>
<circle cx="72.0" cy="335.3" r="3.5" fill="#2563eb" stroke="#fff" stroke-width="1.5"/>
<circle cx="104.1" cy="335.5" r="3.5" fill="#2563eb" stroke="#fff" stroke-width="1.5"/>
<circle cx="136.1" cy="335.9" r="3.5" fill="#2563eb" stroke="#fff" stroke-width="1.5"/>
<circle cx="168.2" cy="324.7" r="3.5" fill="#2563eb" stroke="#fff" stroke-width="1.5"/>
<circle cx="200.3" cy="324.5" r="3.5" fill="#2563eb" stroke="#fff" stroke-width="1.5"/>
<circle cx="232.4" cy="324.9" r="3.5" fill="#2563eb" stroke="#fff" stroke-width="1.5"/>
<circle cx="264.4" cy="320.3" r="3.5" fill="#2563eb" stroke="#fff" stroke-width="1.5"/>
<circle cx="296.5" cy="319.9" r="3.5" fill="#2563eb" stroke="#fff" stroke-width="1.5"/>
<circle cx="328.6" cy="319.3" r="3.5" fill="#2563eb" stroke="#fff" stroke-width="1.5"/>
<circle cx="360.6" cy="338.6" r="3.5" fill="#2563eb" stroke="#fff" stroke-width="1.5"/>
<circle cx="392.7" cy="338.9" r="3.5" fill="#2563eb" stroke="#fff" stroke-width="1.5"/>
<circle cx="424.8" cy="338.4" r="3.5" fill="#2563eb" stroke="#fff" stroke-width="1.5"/>
<circle cx="456.9" cy="339.2" r="3.5" fill="#2563eb" stroke="#fff" stroke-width="1.5"/>
<circle cx="488.9" cy="339.1" r="3.5" fill="#2563eb" stroke="#fff" stroke-width="1.5"/>
<circle cx="521.0" cy="338.5" r="3.5" fill="#2563eb" stroke="#fff" stroke-width="1.5"/>
<circle cx="553.1" cy="338.8" r="3.5" fill="#2563eb" stroke="#fff" stroke-width="1.5"/>
<circle cx="585.1" cy="338.9" r="3.5" fill="#2563eb" stroke="#fff" stroke-width="1.5"/>
<circle cx="617.2" cy="338.9" r="3.5" fill="#2563eb" stroke="#fff" stroke-width="1.5"/>
<circle cx="649.3" cy="339.1" r="3.5" fill="#2563eb" stroke="#fff" stroke-width="1.5"/>
<circle cx="681.4" cy="338.9" r="3.5" fill="#2563eb" stroke="#fff" stroke-width="1.5"/>
<circle cx="713.4" cy="339.0" r="3.5" fill="#2563eb" stroke="#fff" stroke-width="1.5"/>
<circle cx="745.5" cy="338.8" r="3.5" fill="#2563eb" stroke="#fff" stroke-width="1.5"/>
<circle cx="777.6" cy="339.0" r="3.5" fill="#2563eb" stroke="#fff" stroke-width="1.5"/>
<circle cx="809.6" cy="338.9" r="3.5" fill="#2563eb" stroke="#fff" stroke-width="1.5"/>
<circle cx="841.7" cy="338.6" r="3.5" fill="#2563eb" stroke="#fff" stroke-width="1.5"/>
<circle cx="873.8" cy="338.5" r="3.5" fill="#2563eb" stroke="#fff" stroke-width="1.5"/>
<circle cx="905.9" cy="338.9" r="3.5" fill="#2563eb" stroke="#fff" stroke-width="1.5"/>
<circle cx="937.9" cy="338.2" r="3.5" fill="#2563eb" stroke="#fff" stroke-width="1.5"/>
<circle cx="970.0" cy="338.4" r="3.5" fill="#2563eb" stroke="#fff" stroke-width="1.5"/>
<polyline fill="none" stroke="#16a34a" stroke-width="2" stroke-linejoin="round" points="72.0,321.3 104.1,321.2 136.1,319.9 168.2,259.1 200.3,261.8 232.4,260.8 264.4,232.0 296.5,230.0 328.6,223.4 360.6,331.5 392.7,332.8 424.8,331.5 456.9,332.7 488.9,332.8 521.0,331.7 553.1,331.6 585.1,332.3 617.2,332.3 649.3,332.5 681.4,331.6 713.4,332.4 745.5,332.5 777.6,332.5 809.6,332.0 841.7,332.3 873.8,332.0 905.9,332.4 937.9,330.6 970.0,331.3"/>
<circle cx="72.0" cy="321.3" r="3.5" fill="#16a34a" stroke="#fff" stroke-width="1.5"/>
<circle cx="104.1" cy="321.2" r="3.5" fill="#16a34a" stroke="#fff" stroke-width="1.5"/>
<circle cx="136.1" cy="319.9" r="3.5" fill="#16a34a" stroke="#fff" stroke-width="1.5"/>
<circle cx="168.2" cy="259.1" r="3.5" fill="#16a34a" stroke="#fff" stroke-width="1.5"/>
<circle cx="200.3" cy="261.8" r="3.5" fill="#16a34a" stroke="#fff" stroke-width="1.5"/>
<circle cx="232.4" cy="260.8" r="3.5" fill="#16a34a" stroke="#fff" stroke-width="1.5"/>
<circle cx="264.4" cy="232.0" r="3.5" fill="#16a34a" stroke="#fff" stroke-width="1.5"/>
<circle cx="296.5" cy="230.0" r="3.5" fill="#16a34a" stroke="#fff" stroke-width="1.5"/>
<circle cx="328.6" cy="223.4" r="3.5" fill="#16a34a" stroke="#fff" stroke-width="1.5"/>
<circle cx="360.6" cy="331.5" r="3.5" fill="#16a34a" stroke="#fff" stroke-width="1.5"/>
<circle cx="392.7" cy="332.8" r="3.5" fill="#16a34a" stroke="#fff" stroke-width="1.5"/>
<circle cx="424.8" cy="331.5" r="3.5" fill="#16a34a" stroke="#fff" stroke-width="1.5"/>
<circle cx="456.9" cy="332.7" r="3.5" fill="#16a34a" stroke="#fff" stroke-width="1.5"/>
<circle cx="488.9" cy="332.8" r="3.5" fill="#16a34a" stroke="#fff" stroke-width="1.5"/>
<circle cx="521.0" cy="331.7" r="3.5" fill="#16a34a" stroke="#fff" stroke-width="1.5"/>
<circle cx="553.1" cy="331.6" r="3.5" fill="#16a34a" stroke="#fff" stroke-width="1.5"/>
<circle cx="585.1" cy="332.3" r="3.5" fill="#16a34a" stroke="#fff" stroke-width="1.5"/>
<circle cx="617.2" cy="332.3" r="3.5" fill="#16a34a" stroke="#fff" stroke-width="1.5"/>
<circle cx="649.3" cy="332.5" r="3.5" fill="#16a34a" stroke="#fff" stroke-width="1.5"/>
<circle cx="681.4" cy="331.6" r="3.5" fill="#16a34a" stroke="#fff" stroke-width="1.5"/>
<circle cx="713.4" cy="332.4" r="3.5" fill="#16a34a" stroke="#fff" stroke-width="1.5"/>
<circle cx="745.5" cy="332.5" r="3.5" fill="#16a34a" stroke="#fff" stroke-width="1.5"/>
<circle cx="777.6" cy="332.5" r="3.5" fill="#16a34a" stroke="#fff" stroke-width="1.5"/>
<circle cx="809.6" cy="332.0" r="3.5" fill="#16a34a" stroke="#fff" stroke-width="1.5"/>
<circle cx="841.7" cy="332.3" r="3.5" fill="#16a34a" stroke="#fff" stroke-width="1.5"/>
<circle cx="873.8" cy="332.0" r="3.5" fill="#16a34a" stroke="#fff" stroke-width="1.5"/>
<circle cx="905.9" cy="332.4" r="3.5" fill="#16a34a" stroke="#fff" stroke-width="1.5"/>
<circle cx="937.9" cy="330.6" r="3.5" fill="#16a34a" stroke="#fff" stroke-width="1.5"/>
<circle cx="970.0" cy="331.3" r="3.5" fill="#16a34a" stroke="#fff" stroke-width="1.5"/>
<polyline fill="none" stroke="#ea580c" stroke-width="2" stroke-linejoin="round" points="72.0,294.3 104.1,295.5 136.1,296.3 168.2,186.8 200.3,189.2 232.4,187.7 264.4,124.3 296.5,106.5 328.6,110.3 360.6,321.2 392.7,320.4 424.8,319.2 456.9,320.2 488.9,320.1 521.0,319.3 553.1,318.2 585.1,319.4 617.2,319.5 649.3,319.6 681.4,318.9 713.4,319.4 745.5,319.3 777.6,319.4 809.6,319.6 841.7,319.0 873.8,319.4 905.9,319.1 937.9,316.6 970.0,318.9"/>
<circle cx="72.0" cy="294.3" r="3.5" fill="#ea580c" stroke="#fff" stroke-width="1.5"/>
<circle cx="104.1" cy="295.5" r="3.5" fill="#ea580c" stroke="#fff" stroke-width="1.5"/>
<circle cx="136.1" cy="296.3" r="3.5" fill="#ea580c" stroke="#fff" stroke-width="1.5"/>
<circle cx="168.2" cy="186.8" r="3.5" fill="#ea580c" stroke="#fff" stroke-width="1.5"/>
<circle cx="200.3" cy="189.2" r="3.5" fill="#ea580c" stroke="#fff" stroke-width="1.5"/>
<circle cx="232.4" cy="187.7" r="3.5" fill="#ea580c" stroke="#fff" stroke-width="1.5"/>
<circle cx="264.4" cy="124.3" r="3.5" fill="#ea580c" stroke="#fff" stroke-width="1.5"/>
<circle cx="296.5" cy="106.5" r="3.5" fill="#ea580c" stroke="#fff" stroke-width="1.5"/>
<circle cx="328.6" cy="110.3" r="3.5" fill="#ea580c" stroke="#fff" stroke-width="1.5"/>
<circle cx="360.6" cy="321.2" r="3.5" fill="#ea580c" stroke="#fff" stroke-width="1.5"/>
<circle cx="392.7" cy="320.4" r="3.5" fill="#ea580c" stroke="#fff" stroke-width="1.5"/>
<circle cx="424.8" cy="319.2" r="3.5" fill="#ea580c" stroke="#fff" stroke-width="1.5"/>
<circle cx="456.9" cy="320.2" r="3.5" fill="#ea580c" stroke="#fff" stroke-width="1.5"/>
<circle cx="488.9" cy="320.1" r="3.5" fill="#ea580c" stroke="#fff" stroke-width="1.5"/>
<circle cx="521.0" cy="319.3" r="3.5" fill="#ea580c" stroke="#fff" stroke-width="1.5"/>
<circle cx="553.1" cy="318.2" r="3.5" fill="#ea580c" stroke="#fff" stroke-width="1.5"/>
<circle cx="585.1" cy="319.4" r="3.5" fill="#ea580c" stroke="#fff" stroke-width="1.5"/>
<circle cx="617.2" cy="319.5" r="3.5" fill="#ea580c" stroke="#fff" stroke-width="1.5"/>
<circle cx="649.3" cy="319.6" r="3.5" fill="#ea580c" stroke="#fff" stroke-width="1.5"/>
<circle cx="681.4" cy="318.9" r="3.5" fill="#ea580c" stroke="#fff" stroke-width="1.5"/>
<circle cx="713.4" cy="319.4" r="3.5" fill="#ea580c" stroke="#fff" stroke-width="1.5"/>
<circle cx="745.5" cy="319.3" r="3.5" fill="#ea580c" stroke="#fff" stroke-width="1.5"/>
<circle cx="777.6" cy="319.4" r="3.5" fill="#ea580c" stroke="#fff" stroke-width="1.5"/>
<circle cx="809.6" cy="319.6" r="3.5" fill="#ea580c" stroke="#fff" stroke-width="1.5"/>
<circle cx="841.7" cy="319.0" r="3.5" fill="#ea580c" stroke="#fff" stroke-width="1.5"/>
<circle cx="873.8" cy="319.4" r="3.5" fill="#ea580c" stroke="#fff" stroke-width="1.5"/>
<circle cx="905.9" cy="319.1" r="3.5" fill="#ea580c" stroke="#fff" stroke-width="1.5"/>
<circle cx="937.9" cy="316.6" r="3.5" fill="#ea580c" stroke="#fff" stroke-width="1.5"/>
<circle cx="970.0" cy="318.9" r="3.5" fill="#ea580c" stroke="#fff" stroke-width="1.5"/>
<polyline fill="none" stroke="#dc2626" stroke-width="2" stroke-linejoin="round" points="72.0,291.4 104.1,291.4 136.1,292.3 168.2,174.2 200.3,171.3 232.4,169.3 264.4,83.8 296.5,88.6 328.6,79.9 360.6,314.8 392.7,317.2 424.8,315.5 456.9,317.6 488.9,317.5 521.0,316.6 553.1,315.4 585.1,316.7 617.2,316.8 649.3,316.5 681.4,316.5 713.4,316.7 745.5,316.2 777.6,316.8 809.6,316.8 841.7,316.4 873.8,316.6 905.9,316.6 937.9,312.8 970.0,316.4"/>
<circle cx="72.0" cy="291.4" r="3.5" fill="#dc2626" stroke="#fff" stroke-width="1.5"/>
<circle cx="104.1" cy="291.4" r="3.5" fill="#dc2626" stroke="#fff" stroke-width="1.5"/>
<circle cx="136.1" cy="292.3" r="3.5" fill="#dc2626" stroke="#fff" stroke-width="1.5"/>
<circle cx="168.2" cy="174.2" r="3.5" fill="#dc2626" stroke="#fff" stroke-width="1.5"/>
<circle cx="200.3" cy="171.3" r="3.5" fill="#dc2626" stroke="#fff" stroke-width="1.5"/>
<circle cx="232.4" cy="169.3" r="3.5" fill="#dc2626" stroke="#fff" stroke-width="1.5"/>
<circle cx="264.4" cy="83.8" r="3.5" fill="#dc2626" stroke="#fff" stroke-width="1.5"/>
<circle cx="296.5" cy="88.6" r="3.5" fill="#dc2626" stroke="#fff" stroke-width="1.5"/>
<circle cx="328.6" cy="79.9" r="3.5" fill="#dc2626" stroke="#fff" stroke-width="1.5"/>
<circle cx="360.6" cy="314.8" r="3.5" fill="#dc2626" stroke="#fff" stroke-width="1.5"/>
<circle cx="392.7" cy="317.2" r="3.5" fill="#dc2626" stroke="#fff" stroke-width="1.5"/>
<circle cx="424.8" cy="315.5" r="3.5" fill="#dc2626" stroke="#fff" stroke-width="1.5"/>
<circle cx="456.9" cy="317.6" r="3.5" fill="#dc2626" stroke="#fff" stroke-width="1.5"/>
<circle cx="488.9" cy="317.5" r="3.5" fill="#dc2626" stroke="#fff" stroke-width="1.5"/>
<circle cx="521.0" cy="316.6" r="3.5" fill="#dc2626" stroke="#fff" stroke-width="1.5"/>
<circle cx="553.1" cy="315.4" r="3.5" fill="#dc2626" stroke="#fff" stroke-width="1.5"/>
<circle cx="585.1" cy="316.7" r="3.5" fill="#dc2626" stroke="#fff" stroke-width="1.5"/>
<circle cx="617.2" cy="316.8" r="3.5" fill="#dc2626" stroke="#fff" stroke-width="1.5"/>
<circle cx="649.3" cy="316.5" r="3.5" fill="#dc2626" stroke="#fff" stroke-width="1.5"/>
<circle cx="681.4" cy="316.5" r="3.5" fill="#dc2626" stroke="#fff" stroke-width="1.5"/>
<circle cx="713.4" cy="316.7" r="3.5" fill="#dc2626" stroke="#fff" stroke-width="1.5"/>
<circle cx="745.5" cy="316.2" r="3.5" fill="#dc2626" stroke="#fff" stroke-width="1.5"/>
<circle cx="777.6" cy="316.8" r="3.5" fill="#dc2626" stroke="#fff" stroke-width="1.5"/>
<circle cx="809.6" cy="316.8" r="3.5" fill="#dc2626" stroke="#fff" stroke-width="1.5"/>
<circle cx="841.7" cy="316.4" r="3.5" fill="#dc2626" stroke="#fff" stroke-width="1.5"/>
<circle cx="873.8" cy="316.6" r="3.5" fill="#dc2626" stroke="#fff" stroke-width="1.5"/>
<circle cx="905.9" cy="316.6" r="3.5" fill="#dc2626" stroke="#fff" stroke-width="1.5"/>
<circle cx="937.9" cy="312.8" r="3.5" fill="#dc2626" stroke="#fff" stroke-width="1.5"/>
<circle cx="970.0" cy="316.4" r="3.5" fill="#dc2626" stroke="#fff" stroke-width="1.5"/>
<circle cx="986" cy="48" r="5" fill="#2563eb"/>
<text x="998" y="52" font-size="12" fill="#334155">small</text>
<circle cx="986" cy="70" r="5" fill="#16a34a"/>
<text x="998" y="74" font-size="12" fill="#334155">medium</text>
<circle cx="986" cy="92" r="5" fill="#ea580c"/>
<text x="998" y="96" font-size="12" fill="#334155">large</text>
<circle cx="986" cy="114" r="5" fill="#dc2626"/>
<text x="998" y="118" font-size="12" fill="#334155">stress</text>
<text x="72" y="434" font-size="15" font-weight="600" fill="#1e293b">hdi benchmark - picker time to first frame</text>
<line x1="72" y1="750.0" x2="970" y2="750.0" stroke="#e2e8f0" stroke-width="1"/>
<text x="64" y="754.0" text-anchor="end" font-size="11" fill="#64748b">0</text>
<line x1="72" y1="738.0" x2="970" y2="738.0" stroke="#e2e8f0" stroke-width="1"/>
<text x="64" y="742.0" text-anchor="end" font-size="11" fill="#64748b">50</text>
<line x1="72" y1="726.0" x2="970" y2="726.0" stroke="#e2e8f0" stroke-width="1"/>
<text x="64" y="730.0" text-anchor="end" font-size="11" fill="#64748b">100</text>
<line x1="72" y1="714.0" x2="970" y2="714.0" stroke="#e2e8f0" stroke-width="1"/>
<text x="64" y="718.0" text-anchor="end" font-size="11" fill="#64748b">150</text>
<line x1="72" y1="702.0" x2="970" y2="702.0" stroke="#e2e8f0" stroke-width="1"/>
<text x="64" y="706.0" text-anchor="end" font-size="11" fill="#64748b">200</text>
<line x1="72" y1="690.0" x2="970" y2="690.0" stroke="#e2e8f0" stroke-width="1"/>
<text x="64" y="694.0" text-anchor="end" font-size="11" fill="#64748b">250</text>
<line x1="72" y1="678.0" x2="970" y2="678.0" stroke="#e2e8f0" stroke-width="1"/>
<text x="64" y="682.0" text-anchor="end" font-size="11" fill="#64748b">300</text>
<line x1="72" y1="666.0" x2="970" y2="666.0" stroke="#e2e8f0" stroke-width="1"/>
<text x="64" y="670.0" text-anchor="end" font-size="11" fill="#64748b">350</text>
<line x1="72" y1="654.0" x2="970" y2="654.0" stroke="#e2e8f0" stroke-width="1"/>
<text x="64" y="658.0" text-anchor="end" font-size="11" fill="#64748b">400</text>
<line x1="72" y1="642.0" x2="970" y2="642.0" stroke="#e2e8f0" stroke-width="1"/>
<text x="64" y="646.0" text-anchor="end" font-size="11" fill="#64748b">450</text>
<line x1="72" y1="630.0" x2="970" y2="630.0" stroke="#e2e8f0" stroke-width="1"/>
<text x="64" y="634.0" text-anchor="end" font-size="11" fill="#64748b">500</text>
<line x1="72" y1="618.0" x2="970" y2="618.0" stroke="#e2e8f0" stroke-width="1"/>
<text x="64" y="622.0" text-anchor="end" font-size="11" fill="#64748b">550</text>
<line x1="72" y1="606.0" x2="970" y2="606.0" stroke="#e2e8f0" stroke-width="1"/>
<text x="64" y="610.0" text-anchor="end" font-size="11" fill="#64748b">600</text>
<line x1="72" y1="594.0" x2="970" y2="594.0" stroke="#e2e8f0" stroke-width="1"/>
<text x="64" y="598.0" text-anchor="end" font-size="11" fill="#64748b">650</text>
<line x1="72" y1="582.0" x2="970" y2="582.0" stroke="#e2e8f0" stroke-width="1"/>
<text x="64" y="586.0" text-anchor="end" font-size="11" fill="#64748b">700</text>
<line x1="72" y1="570.0" x2="970" y2="570.0" stroke="#e2e8f0" stroke-width="1"/>
<text x="64" y="574.0" text-anchor="end" font-size="11" fill="#64748b">750</text>
<line x1="72" y1="558.0" x2="970" y2="558.0" stroke="#e2e8f0" stroke-width="1"/>
<text x="64" y="562.0" text-anchor="end" font-size="11" fill="#64748b">800</text>
<line x1="72" y1="546.0" x2="970" y2="546.0" stroke="#e2e8f0" stroke-width="1"/>
<text x="64" y="550.0" text-anchor="end" font-size="11" fill="#64748b">850</text>
<line x1="72" y1="534.0" x2="970" y2="534.0" stroke="#e2e8f0" stroke-width="1"/>
<text x="64" y="538.0" text-anchor="end" font-size="11" fill="#64748b">900</text>
<line x1="72" y1="522.0" x2="970" y2="522.0" stroke="#e2e8f0" stroke-width="1"/>
<text x="64" y="526.0" text-anchor="end" font-size="11" fill="#64748b">950</text>
<line x1="72" y1="510.0" x2="970" y2="510.0" stroke="#e2e8f0" stroke-width="1"/>
<text x="64" y="514.0" text-anchor="end" font-size="11" fill="#64748b">1000</text>
<line x1="72" y1="498.0" x2="970" y2="498.0" stroke="#e2e8f0" stroke-width="1"/>
<text x="64" y="502.0" text-anchor="end" font-size="11" fill="#64748b">1050</text>
<line x1="72" y1="486.0" x2="970" y2="486.0" stroke="#e2e8f0" stroke-width="1"/>
<text x="64" y="490.0" text-anchor="end" font-size="11" fill="#64748b">1100</text>
<line x1="72" y1="474.0" x2="970" y2="474.0" stroke="#e2e8f0" stroke-width="1"/>
<text x="64" y="478.0" text-anchor="end" font-size="11" fill="#64748b">1150</text>
<line x1="72" y1="462.0" x2="970" y2="462.0" stroke="#e2e8f0" stroke-width="1"/>
<text x="64" y="466.0" text-anchor="end" font-size="11" fill="#64748b">1200</text>
<line x1="72" y1="450.0" x2="970" y2="450.0" stroke="#e2e8f0" stroke-width="1"/>
<text x="64" y="454.0" text-anchor="end" font-size="11" fill="#64748b">1250</text>
<text x="14" y="600" font-size="11" fill="#64748b" transform="rotate(-90,14,600)">ms</text>
<text x="72.0" y="770" text-anchor="middle" font-size="11" fill="#64748b">0.1.0</text>
<text x="104.1" y="770" text-anchor="middle" font-size="11" fill="#64748b">0.2.0</text>
<text x="136.1" y="770" text-anchor="middle" font-size="11" fill="#64748b">0.3.0</text>
<text x="168.2" y="770" text-anchor="middle" font-size="11" fill="#64748b">0.4.0</text>
<text x="200.3" y="770" text-anchor="middle" font-size="11" fill="#64748b">0.5.0</text>
<text x="232.4" y="770" text-anchor="middle" font-size="11" fill="#64748b">0.6.0</text>
<text x="264.4" y="770" text-anchor="middle" font-size="11" fill="#64748b">0.7.0</text>
<text x="296.5" y="770" text-anchor="middle" font-size="11" fill="#64748b">0.8.0</text>
<text x="328.6" y="770" text-anchor="middle" font-size="11" fill="#64748b">0.9.0</text>
<text x="360.6" y="770" text-anchor="middle" font-size="11" fill="#64748b">0.10.0</text>
<text x="392.7" y="770" text-anchor="middle" font-size="11" fill="#64748b">0.11.0</text>
<text x="424.8" y="770" text-anchor="middle" font-size="11" fill="#64748b">0.12.0</text>
<text x="456.9" y="770" text-anchor="middle" font-size="11" fill="#64748b">0.13.0</text>
<text x="488.9" y="770" text-anchor="middle" font-size="11" fill="#64748b">0.14.0</text>
<text x="521.0" y="770" text-anchor="middle" font-size="11" fill="#64748b">0.15.0</text>
<text x="553.1" y="770" text-anchor="middle" font-size="11" fill="#64748b">0.16.0</text>
<text x="585.1" y="770" text-anchor="middle" font-size="11" fill="#64748b">0.17.0</text>
<text x="617.2" y="770" text-anchor="middle" font-size="11" fill="#64748b">0.17.1</text>
<text x="649.3" y="770" text-anchor="middle" font-size="11" fill="#64748b">0.17.2</text>
<text x="681.4" y="770" text-anchor="middle" font-size="11" fill="#64748b">0.18.0</text>
<text x="713.4" y="770" text-anchor="middle" font-size="11" fill="#64748b">0.18.1</text>
<text x="745.5" y="770" text-anchor="middle" font-size="11" fill="#64748b">0.18.2</text>
<text x="777.6" y="770" text-anchor="middle" font-size="11" fill="#64748b">0.18.3</text>
<text x="809.6" y="770" text-anchor="middle" font-size="11" fill="#64748b">0.18.4</text>
<text x="841.7" y="770" text-anchor="middle" font-size="11" fill="#64748b">0.18.5</text>
<text x="873.8" y="770" text-anchor="middle" font-size="11" fill="#64748b">0.19.0</text>
<text x="905.9" y="770" text-anchor="middle" font-size="11" fill="#64748b">0.19.1</text>
<text x="937.9" y="770" text-anchor="middle" font-size="11" fill="#64748b">0.20.0</text>
<text x="970.0" y="770" text-anchor="middle" font-size="11" fill="#64748b">0.21.0</text>
<text x="521" y="790" text-anchor="middle" font-size="11" fill="#64748b">release</text>
<polyline fill="none" stroke="#2563eb" stroke-width="2" stroke-linejoin="round" points="72.0,740.7 104.1,740.9 136.1,740.8 168.2,729.2 200.3,730.2 232.4,730.3 264.4,730.2 296.5,725.5 328.6,723.7 360.6,744.0 392.7,744.6 424.8,744.6 456.9,744.2 488.9,744.1 521.0,743.9 553.1,744.3 585.1,743.4 617.2,744.2 649.3,744.3 681.4,744.1 713.4,744.3 745.5,744.4 777.6,744.2 809.6,744.2 841.7,744.3 873.8,744.2 905.9,744.3 937.9,743.4 970.0,744.1"/>
<circle cx="72.0" cy="740.7" r="3.5" fill="#2563eb" stroke="#fff" stroke-width="1.5"/>
<circle cx="104.1" cy="740.9" r="3.5" fill="#2563eb" stroke="#fff" stroke-width="1.5"/>
<circle cx="136.1" cy="740.8" r="3.5" fill="#2563eb" stroke="#fff" stroke-width="1.5"/>
<circle cx="168.2" cy="729.2" r="3.5" fill="#2563eb" stroke="#fff" stroke-width="1.5"/>
<circle cx="200.3" cy="730.2" r="3.5" fill="#2563eb" stroke="#fff" stroke-width="1.5"/>
<circle cx="232.4" cy="730.3" r="3.5" fill="#2563eb" stroke="#fff" stroke-width="1.5"/>
<circle cx="264.4" cy="730.2" r="3.5" fill="#2563eb" stroke="#fff" stroke-width="1.5"/>
<circle cx="296.5" cy="725.5" r="3.5" fill="#2563eb" stroke="#fff" stroke-width="1.5"/>
<circle cx="328.6" cy="723.7" r="3.5" fill="#2563eb" stroke="#fff" stroke-width="1.5"/>
<circle cx="360.6" cy="744.0" r="3.5" fill="#2563eb" stroke="#fff" stroke-width="1.5"/>
<circle cx="392.7" cy="744.6" r="3.5" fill="#2563eb" stroke="#fff" stroke-width="1.5"/>
<circle cx="424.8" cy="744.6" r="3.5" fill="#2563eb" stroke="#fff" stroke-width="1.5"/>
<circle cx="456.9" cy="744.2" r="3.5" fill="#2563eb" stroke="#fff" stroke-width="1.5"/>
<circle cx="488.9" cy="744.1" r="3.5" fill="#2563eb" stroke="#fff" stroke-width="1.5"/>
<circle cx="521.0" cy="743.9" r="3.5" fill="#2563eb" stroke="#fff" stroke-width="1.5"/>
<circle cx="553.1" cy="744.3" r="3.5" fill="#2563eb" stroke="#fff" stroke-width="1.5"/>
<circle cx="585.1" cy="743.4" r="3.5" fill="#2563eb" stroke="#fff" stroke-width="1.5"/>
<circle cx="617.2" cy="744.2" r="3.5" fill="#2563eb" stroke="#fff" stroke-width="1.5"/>
<circle cx="649.3" cy="744.3" r="3.5" fill="#2563eb" stroke="#fff" stroke-width="1.5"/>
<circle cx="681.4" cy="744.1" r="3.5" fill="#2563eb" stroke="#fff" stroke-width="1.5"/>
<circle cx="713.4" cy="744.3" r="3.5" fill="#2563eb" stroke="#fff" stroke-width="1.5"/>
<circle cx="745.5" cy="744.4" r="3.5" fill="#2563eb" stroke="#fff" stroke-width="1.5"/>
<circle cx="777.6" cy="744.2" r="3.5" fill="#2563eb" stroke="#fff" stroke-width="1.5"/>
<circle cx="809.6" cy="744.2" r="3.5" fill="#2563eb" stroke="#fff" stroke-width="1.5"/>
<circle cx="841.7" cy="744.3" r="3.5" fill="#2563eb" stroke="#fff" stroke-width="1.5"/>
<circle cx="873.8" cy="744.2" r="3.5" fill="#2563eb" stroke="#fff" stroke-width="1.5"/>
<circle cx="905.9" cy="744.3" r="3.5" fill="#2563eb" stroke="#fff" stroke-width="1.5"/>
<circle cx="937.9" cy="743.4" r="3.5" fill="#2563eb" stroke="#fff" stroke-width="1.5"/>
<circle cx="970.0" cy="744.1" r="3.5" fill="#2563eb" stroke="#fff" stroke-width="1.5"/>
<polyline fill="none" stroke="#16a34a" stroke-width="2" stroke-linejoin="round" points="72.0,726.9 104.1,723.6 136.1,726.5 168.2,665.3 200.3,666.7 232.4,665.3 264.4,666.5 296.5,634.1 328.6,633.4 360.6,736.3 392.7,737.0 424.8,737.4 456.9,737.0 488.9,736.8 521.0,736.6 553.1,736.8 585.1,736.4 617.2,736.6 649.3,736.9 681.4,736.6 713.4,737.2 745.5,736.6 777.6,736.7 809.6,736.4 841.7,736.9 873.8,736.6 905.9,736.8 937.9,735.8 970.0,737.5"/>
<circle cx="72.0" cy="726.9" r="3.5" fill="#16a34a" stroke="#fff" stroke-width="1.5"/>
<circle cx="104.1" cy="723.6" r="3.5" fill="#16a34a" stroke="#fff" stroke-width="1.5"/>
<circle cx="136.1" cy="726.5" r="3.5" fill="#16a34a" stroke="#fff" stroke-width="1.5"/>
<circle cx="168.2" cy="665.3" r="3.5" fill="#16a34a" stroke="#fff" stroke-width="1.5"/>
<circle cx="200.3" cy="666.7" r="3.5" fill="#16a34a" stroke="#fff" stroke-width="1.5"/>
<circle cx="232.4" cy="665.3" r="3.5" fill="#16a34a" stroke="#fff" stroke-width="1.5"/>
<circle cx="264.4" cy="666.5" r="3.5" fill="#16a34a" stroke="#fff" stroke-width="1.5"/>
<circle cx="296.5" cy="634.1" r="3.5" fill="#16a34a" stroke="#fff" stroke-width="1.5"/>
<circle cx="328.6" cy="633.4" r="3.5" fill="#16a34a" stroke="#fff" stroke-width="1.5"/>
<circle cx="360.6" cy="736.3" r="3.5" fill="#16a34a" stroke="#fff" stroke-width="1.5"/>
<circle cx="392.7" cy="737.0" r="3.5" fill="#16a34a" stroke="#fff" stroke-width="1.5"/>
<circle cx="424.8" cy="737.4" r="3.5" fill="#16a34a" stroke="#fff" stroke-width="1.5"/>
<circle cx="456.9" cy="737.0" r="3.5" fill="#16a34a" stroke="#fff" stroke-width="1.5"/>
<circle cx="488.9" cy="736.8" r="3.5" fill="#16a34a" stroke="#fff" stroke-width="1.5"/>
<circle cx="521.0" cy="736.6" r="3.5" fill="#16a34a" stroke="#fff" stroke-width="1.5"/>
<circle cx="553.1" cy="736.8" r="3.5" fill="#16a34a" stroke="#fff" stroke-width="1.5"/>
<circle cx="585.1" cy="736.4" r="3.5" fill="#16a34a" stroke="#fff" stroke-width="1.5"/>
<circle cx="617.2" cy="736.6" r="3.5" fill="#16a34a" stroke="#fff" stroke-width="1.5"/>
<circle cx="649.3" cy="736.9" r="3.5" fill="#16a34a" stroke="#fff" stroke-width="1.5"/>
<circle cx="681.4" cy="736.6" r="3.5" fill="#16a34a" stroke="#fff" stroke-width="1.5"/>
<circle cx="713.4" cy="737.2" r="3.5" fill="#16a34a" stroke="#fff" stroke-width="1.5"/>
<circle cx="745.5" cy="736.6" r="3.5" fill="#16a34a" stroke="#fff" stroke-width="1.5"/>
<circle cx="777.6" cy="736.7" r="3.5" fill="#16a34a" stroke="#fff" stroke-width="1.5"/>
<circle cx="809.6" cy="736.4" r="3.5" fill="#16a34a" stroke="#fff" stroke-width="1.5"/>
<circle cx="841.7" cy="736.9" r="3.5" fill="#16a34a" stroke="#fff" stroke-width="1.5"/>
<circle cx="873.8" cy="736.6" r="3.5" fill="#16a34a" stroke="#fff" stroke-width="1.5"/>
<circle cx="905.9" cy="736.8" r="3.5" fill="#16a34a" stroke="#fff" stroke-width="1.5"/>
<circle cx="937.9" cy="735.8" r="3.5" fill="#16a34a" stroke="#fff" stroke-width="1.5"/>
<circle cx="970.0" cy="737.5" r="3.5" fill="#16a34a" stroke="#fff" stroke-width="1.5"/>
<polyline fill="none" stroke="#ea580c" stroke-width="2" stroke-linejoin="round" points="72.0,695.4 104.1,695.6 136.1,696.8 168.2,594.9 200.3,592.3 232.4,592.1 264.4,593.6 296.5,503.6 328.6,519.8 360.6,724.5 392.7,723.0 424.8,723.1 456.9,722.7 488.9,721.9 521.0,722.1 553.1,721.5 585.1,721.5 617.2,721.6 649.3,721.9 681.4,722.0 713.4,722.2 745.5,721.9 777.6,722.4 809.6,722.2 841.7,722.3 873.8,722.2 905.9,722.5 937.9,721.2 970.0,724.6"/>
<circle cx="72.0" cy="695.4" r="3.5" fill="#ea580c" stroke="#fff" stroke-width="1.5"/>
<circle cx="104.1" cy="695.6" r="3.5" fill="#ea580c" stroke="#fff" stroke-width="1.5"/>
<circle cx="136.1" cy="696.8" r="3.5" fill="#ea580c" stroke="#fff" stroke-width="1.5"/>
<circle cx="168.2" cy="594.9" r="3.5" fill="#ea580c" stroke="#fff" stroke-width="1.5"/>
<circle cx="200.3" cy="592.3" r="3.5" fill="#ea580c" stroke="#fff" stroke-width="1.5"/>
<circle cx="232.4" cy="592.1" r="3.5" fill="#ea580c" stroke="#fff" stroke-width="1.5"/>
<circle cx="264.4" cy="593.6" r="3.5" fill="#ea580c" stroke="#fff" stroke-width="1.5"/>
<circle cx="296.5" cy="503.6" r="3.5" fill="#ea580c" stroke="#fff" stroke-width="1.5"/>
<circle cx="328.6" cy="519.8" r="3.5" fill="#ea580c" stroke="#fff" stroke-width="1.5"/>
<circle cx="360.6" cy="724.5" r="3.5" fill="#ea580c" stroke="#fff" stroke-width="1.5"/>
<circle cx="392.7" cy="723.0" r="3.5" fill="#ea580c" stroke="#fff" stroke-width="1.5"/>
<circle cx="424.8" cy="723.1" r="3.5" fill="#ea580c" stroke="#fff" stroke-width="1.5"/>
<circle cx="456.9" cy="722.7" r="3.5" fill="#ea580c" stroke="#fff" stroke-width="1.5"/>
<circle cx="488.9" cy="721.9" r="3.5" fill="#ea580c" stroke="#fff" stroke-width="1.5"/>
<circle cx="521.0" cy="722.1" r="3.5" fill="#ea580c" stroke="#fff" stroke-width="1.5"/>
<circle cx="553.1" cy="721.5" r="3.5" fill="#ea580c" stroke="#fff" stroke-width="1.5"/>
<circle cx="585.1" cy="721.5" r="3.5" fill="#ea580c" stroke="#fff" stroke-width="1.5"/>
<circle cx="617.2" cy="721.6" r="3.5" fill="#ea580c" stroke="#fff" stroke-width="1.5"/>
<circle cx="649.3" cy="721.9" r="3.5" fill="#ea580c" stroke="#fff" stroke-width="1.5"/>
<circle cx="681.4" cy="722.0" r="3.5" fill="#ea580c" stroke="#fff" stroke-width="1.5"/>
<circle cx="713.4" cy="722.2" r="3.5" fill="#ea580c" stroke="#fff" stroke-width="1.5"/>
<circle cx="745.5" cy="721.9" r="3.5" fill="#ea580c" stroke="#fff" stroke-width="1.5"/>
<circle cx="777.6" cy="722.4" r="3.5" fill="#ea580c" stroke="#fff" stroke-width="1.5"/>
<circle cx="809.6" cy="722.2" r="3.5" fill="#ea580c" stroke="#fff" stroke-width="1.5"/>
<circle cx="841.7" cy="722.3" r="3.5" fill="#ea580c" stroke="#fff" stroke-width="1.5"/>
<circle cx="873.8" cy="722.2" r="3.5" fill="#ea580c" stroke="#fff" stroke-width="1.5"/>
<circle cx="905.9" cy="722.5" r="3.5" fill="#ea580c" stroke="#fff" stroke-width="1.5"/>
<circle cx="937.9" cy="721.2" r="3.5" fill="#ea580c" stroke="#fff" stroke-width="1.5"/>
<circle cx="970.0" cy="724.6" r="3.5" fill="#ea580c" stroke="#fff" stroke-width="1.5"/>
<polyline fill="none" stroke="#dc2626" stroke-width="2" stroke-linejoin="round" points="72.0,694.1 104.1,697.2 136.1,696.0 168.2,578.7 200.3,573.1 232.4,579.6 264.4,577.7 296.5,483.1 328.6,488.9 360.6,717.6 392.7,720.0 424.8,719.7 456.9,720.1 488.9,718.0 521.0,719.2 553.1,717.9 585.1,718.3 617.2,719.2 649.3,719.3 681.4,719.3 713.4,719.3 745.5,719.0 777.6,719.3 809.6,719.3 841.7,719.1 873.8,719.5 905.9,719.2 937.9,718.3 970.0,722.2"/>
<circle cx="72.0" cy="694.1" r="3.5" fill="#dc2626" stroke="#fff" stroke-width="1.5"/>
<circle cx="104.1" cy="697.2" r="3.5" fill="#dc2626" stroke="#fff" stroke-width="1.5"/>
<circle cx="136.1" cy="696.0" r="3.5" fill="#dc2626" stroke="#fff" stroke-width="1.5"/>
<circle cx="168.2" cy="578.7" r="3.5" fill="#dc2626" stroke="#fff" stroke-width="1.5"/>
<circle cx="200.3" cy="573.1" r="3.5" fill="#dc2626" stroke="#fff" stroke-width="1.5"/>
<circle cx="232.4" cy="579.6" r="3.5" fill="#dc2626" stroke="#fff" stroke-width="1.5"/>
<circle cx="264.4" cy="577.7" r="3.5" fill="#dc2626" stroke="#fff" stroke-width="1.5"/>
<circle cx="296.5" cy="483.1" r="3.5" fill="#dc2626" stroke="#fff" stroke-width="1.5"/>
<circle cx="328.6" cy="488.9" r="3.5" fill="#dc2626" stroke="#fff" stroke-width="1.5"/>
<circle cx="360.6" cy="717.6" r="3.5" fill="#dc2626" stroke="#fff" stroke-width="1.5"/>
<circle cx="392.7" cy="720.0" r="3.5" fill="#dc2626" stroke="#fff" stroke-width="1.5"/>
<circle cx="424.8" cy="719.7" r="3.5" fill="#dc2626" stroke="#fff" stroke-width="1.5"/>
<circle cx="456.9" cy="720.1" r="3.5" fill="#dc2626" stroke="#fff" stroke-width="1.5"/>
<circle cx="488.9" cy="718.0" r="3.5" fill="#dc2626" stroke="#fff" stroke-width="1.5"/>
<circle cx="521.0" cy="719.2" r="3.5" fill="#dc2626" stroke="#fff" stroke-width="1.5"/>
<circle cx="553.1" cy="717.9" r="3.5" fill="#dc2626" stroke="#fff" stroke-width="1.5"/>
<circle cx="585.1" cy="718.3" r="3.5" fill="#dc2626" stroke="#fff" stroke-width="1.5"/>
<circle cx="617.2" cy="719.2" r="3.5" fill="#dc2626" stroke="#fff" stroke-width="1.5"/>
<circle cx="649.3" cy="719.3" r="3.5" fill="#dc2626" stroke="#fff" stroke-width="1.5"/>
<circle cx="681.4" cy="719.3" r="3.5" fill="#dc2626" stroke="#fff" stroke-width="1.5"/>
<circle cx="713.4" cy="719.3" r="3.5" fill="#dc2626" stroke="#fff" stroke-width="1.5"/>
<circle cx="745.5" cy="719.0" r="3.5" fill="#dc2626" stroke="#fff" stroke-width="1.5"/>
<circle cx="777.6" cy="719.3" r="3.5" fill="#dc2626" stroke="#fff" stroke-width="1.5"/>
<circle cx="809.6" cy="719.3" r="3.5" fill="#dc2626" stroke="#fff" stroke-width="1.5"/>
<circle cx="841.7" cy="719.1" r="3.5" fill="#dc2626" stroke="#fff" stroke-width="1.5"/>
<circle cx="873.8" cy="719.5" r="3.5" fill="#dc2626" stroke="#fff" stroke-width="1.5"/>
<circle cx="905.9" cy="719.2" r="3.5" fill="#dc2626" stroke="#fff" stroke-width="1.5"/>
<circle cx="937.9" cy="718.3" r="3.5" fill="#dc2626" stroke="#fff" stroke-width="1.5"/>
<circle cx="970.0" cy="722.2" r="3.5" fill="#dc2626" stroke="#fff" stroke-width="1.5"/>
<circle cx="986" cy="454" r="5" fill="#2563eb"/>
<text x="998" y="458" font-size="12" fill="#334155">small</text>
<circle cx="986" cy="476" r="5" fill="#16a34a"/>
<text x="998" y="480" font-size="12" fill="#334155">medium</text>
<circle cx="986" cy="498" r="5" fill="#ea580c"/>
<text x="998" y="502" font-size="12" fill="#334155">large</text>
<circle cx="986" cy="520" r="5" fill="#dc2626"/>
<text x="998" y="524" font-size="12" fill="#334155">stress</text>
</svg>
