<?xml version="1.0" encoding="UTF-8"?>
<svg xmlns="http://www.w3.org/2000/svg" width="1080" height="840" viewBox="0 0 1080 840" font-family="system-ui,sans-serif">
<rect width="1080" height="840" fill="#fff" rx="6"/>
<text x="72" y="24" font-size="15" font-weight="600" fill="#1e293b">hdi benchmark - median parse time</text>
<line x1="72" y1="790.0" x2="970" y2="790.0" stroke="#e2e8f0" stroke-width="1"/>
<text x="64" y="794.0" text-anchor="end" font-size="11" fill="#64748b">0</text>
<line x1="72" y1="760.2" x2="970" y2="760.2" stroke="#e2e8f0" stroke-width="1"/>
<text x="64" y="764.2" text-anchor="end" font-size="11" fill="#64748b">50</text>
<line x1="72" y1="730.3" x2="970" y2="730.3" stroke="#e2e8f0" stroke-width="1"/>
<text x="64" y="734.3" text-anchor="end" font-size="11" fill="#64748b">100</text>
<line x1="72" y1="700.5" x2="970" y2="700.5" stroke="#e2e8f0" stroke-width="1"/>
<text x="64" y="704.5" text-anchor="end" font-size="11" fill="#64748b">150</text>
<line x1="72" y1="670.6" x2="970" y2="670.6" stroke="#e2e8f0" stroke-width="1"/>
<text x="64" y="674.6" text-anchor="end" font-size="11" fill="#64748b">200</text>
<line x1="72" y1="640.8" x2="970" y2="640.8" stroke="#e2e8f0" stroke-width="1"/>
<text x="64" y="644.8" text-anchor="end" font-size="11" fill="#64748b">250</text>
<line x1="72" y1="611.0" x2="970" y2="611.0" stroke="#e2e8f0" stroke-width="1"/>
<text x="64" y="615.0" text-anchor="end" font-size="11" fill="#64748b">300</text>
<line x1="72" y1="581.1" x2="970" y2="581.1" stroke="#e2e8f0" stroke-width="1"/>
<text x="64" y="585.1" text-anchor="end" font-size="11" fill="#64748b">350</text>
<line x1="72" y1="551.3" x2="970" y2="551.3" stroke="#e2e8f0" stroke-width="1"/>
<text x="64" y="555.3" text-anchor="end" font-size="11" fill="#64748b">400</text>
<line x1="72" y1="521.4" x2="970" y2="521.4" stroke="#e2e8f0" stroke-width="1"/>
<text x="64" y="525.4" text-anchor="end" font-size="11" fill="#64748b">450</text>
<line x1="72" y1="491.6" x2="970" y2="491.6" stroke="#e2e8f0" stroke-width="1"/>
<text x="64" y="495.6" text-anchor="end" font-size="11" fill="#64748b">500</text>
<line x1="72" y1="461.8" x2="970" y2="461.8" stroke="#e2e8f0" stroke-width="1"/>
<text x="64" y="465.8" text-anchor="end" font-size="11" fill="#64748b">550</text>
<line x1="72" y1="431.9" x2="970" y2="431.9" stroke="#e2e8f0" stroke-width="1"/>
<text x="64" y="435.9" text-anchor="end" font-size="11" fill="#64748b">600</text>
<line x1="72" y1="402.1" x2="970" y2="402.1" stroke="#e2e8f0" stroke-width="1"/>
<text x="64" y="406.1" text-anchor="end" font-size="11" fill="#64748b">650</text>
<line x1="72" y1="372.2" x2="970" y2="372.2" stroke="#e2e8f0" stroke-width="1"/>
<text x="64" y="376.2" text-anchor="end" font-size="11" fill="#64748b">700</text>
<line x1="72" y1="342.4" x2="970" y2="342.4" stroke="#e2e8f0" stroke-width="1"/>
<text x="64" y="346.4" text-anchor="end" font-size="11" fill="#64748b">750</text>
<line x1="72" y1="312.6" x2="970" y2="312.6" stroke="#e2e8f0" stroke-width="1"/>
<text x="64" y="316.6" text-anchor="end" font-size="11" fill="#64748b">800</text>
<line x1="72" y1="282.7" x2="970" y2="282.7" stroke="#e2e8f0" stroke-width="1"/>
<text x="64" y="286.7" text-anchor="end" font-size="11" fill="#64748b">850</text>
<line x1="72" y1="252.9" x2="970" y2="252.9" stroke="#e2e8f0" stroke-width="1"/>
<text x="64" y="256.9" text-anchor="end" font-size="11" fill="#64748b">900</text>
<line x1="72" y1="223.0" x2="970" y2="223.0" stroke="#e2e8f0" stroke-width="1"/>
<text x="64" y="227.0" text-anchor="end" font-size="11" fill="#64748b">950</text>
<line x1="72" y1="193.2" x2="970" y2="193.2" stroke="#e2e8f0" stroke-width="1"/>
<text x="64" y="197.2" text-anchor="end" font-size="11" fill="#64748b">1000</text>
<line x1="72" y1="163.4" x2="970" y2="163.4" stroke="#e2e8f0" stroke-width="1"/>
<text x="64" y="167.4" text-anchor="end" font-size="11" fill="#64748b">1050</text>
<line x1="72" y1="133.5" x2="970" y2="133.5" stroke="#e2e8f0" stroke-width="1"/>
<text x="64" y="137.5" text-anchor="end" font-size="11" fill="#64748b">1100</text>
<line x1="72" y1="103.7" x2="970" y2="103.7" stroke="#e2e8f0" stroke-width="1"/>
<text x="64" y="107.7" text-anchor="end" font-size="11" fill="#64748b">1150</text>
<line x1="72" y1="73.8" x2="970" y2="73.8" stroke="#e2e8f0" stroke-width="1"/>
<text x="64" y="77.8" text-anchor="end" font-size="11" fill="#64748b">1200</text>
<line x1="72" y1="44.0" x2="970" y2="44.0" stroke="#e2e8f0" stroke-width="1"/>
<text x="64" y="48.0" text-anchor="end" font-size="11" fill="#64748b">1250</text>
<text x="14" y="417" font-size="11" fill="#64748b" transform="rotate(-90,14,417)">ms</text>
<text x="72.0" y="810" text-anchor="middle" font-size="11" fill="#64748b">0.7.0</text>
<text x="161.8" y="810" text-anchor="middle" font-size="11" fill="#64748b">0.8.0</text>
<text x="251.6" y="810" text-anchor="middle" font-size="11" fill="#64748b">0.9.0</text>
<text x="341.4" y="810" text-anchor="middle" font-size="11" fill="#64748b">0.10.0</text>
<text x="431.2" y="810" text-anchor="middle" font-size="11" fill="#64748b">0.11.0</text>
<text x="521.0" y="810" text-anchor="middle" font-size="11" fill="#64748b">0.12.0</text>
<text x="610.8" y="810" text-anchor="middle" font-size="11" fill="#64748b">0.13.0</text>
<text x="700.6" y="810" text-anchor="middle" font-size="11" fill="#64748b">0.14.0</text>
<text x="790.4" y="810" text-anchor="middle" font-size="11" fill="#64748b">0.15.0</text>
<text x="880.2" y="810" text-anchor="middle" font-size="11" fill="#64748b">0.16.0</text>
<text x="970.0" y="810" text-anchor="middle" font-size="11" fill="#64748b">0.17.0</text>
<text x="521" y="830" text-anchor="middle" font-size="11" fill="#64748b">release</text>
<polyline fill="none" stroke="#2563eb" stroke-width="2" stroke-linejoin="round" points="72.0,731.0 161.8,730.1 251.6,728.6 341.4,776.7 431.2,777.3 521.0,776.1 610.8,778.0 700.6,777.9 790.4,776.3 880.2,777.1 970.0,777.2"/>
<circle cx="72.0" cy="731.0" r="3.5" fill="#2563eb" stroke="#fff" stroke-width="1.5"/>
<circle cx="161.8" cy="730.1" r="3.5" fill="#2563eb" stroke="#fff" stroke-width="1.5"/>
<circle cx="251.6" cy="728.6" r="3.5" fill="#2563eb" stroke="#fff" stroke-width="1.5"/>
<circle cx="341.4" cy="776.7" r="3.5" fill="#2563eb" stroke="#fff" stroke-width="1.5"/>
<circle cx="431.2" cy="777.3" r="3.5" fill="#2563eb" stroke="#fff" stroke-width="1.5"/>
<circle cx="521.0" cy="776.1" r="3.5" fill="#2563eb" stroke="#fff" stroke-width="1.5"/>
<circle cx="610.8" cy="778.0" r="3.5" fill="#2563eb" stroke="#fff" stroke-width="1.5"/>
<circle cx="700.6" cy="777.9" r="3.5" fill="#2563eb" stroke="#fff" stroke-width="1.5"/>
<circle cx="790.4" cy="776.3" r="3.5" fill="#2563eb" stroke="#fff" stroke-width="1.5"/>
<circle cx="880.2" cy="777.1" r="3.5" fill="#2563eb" stroke="#fff" stroke-width="1.5"/>
<circle cx="970.0" cy="777.2" r="3.5" fill="#2563eb" stroke="#fff" stroke-width="1.5"/>
<polyline fill="none" stroke="#16a34a" stroke-width="2" stroke-linejoin="round" points="72.0,511.4 161.8,506.6 251.6,490.2 341.4,759.0 431.2,762.2 521.0,759.0 610.8,762.0 700.6,762.2 790.4,759.4 880.2,759.1 970.0,760.9"/>
<circle cx="72.0" cy="511.4" r="3.5" fill="#16a34a" stroke="#fff" stroke-width="1.5"/>
<circle cx="161.8" cy="506.6" r="3.5" fill="#16a34a" stroke="#fff" stroke-width="1.5"/>
<circle cx="251.6" cy="490.2" r="3.5" fill="#16a34a" stroke="#fff" stroke-width="1.5"/>
<circle cx="341.4" cy="759.0" r="3.5" fill="#16a34a" stroke="#fff" stroke-width="1.5"/>
<circle cx="431.2" cy="762.2" r="3.5" fill="#16a34a" stroke="#fff" stroke-width="1.5"/>
<circle cx="521.0" cy="759.0" r="3.5" fill="#16a34a" stroke="#fff" stroke-width="1.5"/>
<circle cx="610.8" cy="762.0" r="3.5" fill="#16a34a" stroke="#fff" stroke-width="1.5"/>
<circle cx="700.6" cy="762.2" r="3.5" fill="#16a34a" stroke="#fff" stroke-width="1.5"/>
<circle cx="790.4" cy="759.4" r="3.5" fill="#16a34a" stroke="#fff" stroke-width="1.5"/>
<circle cx="880.2" cy="759.1" r="3.5" fill="#16a34a" stroke="#fff" stroke-width="1.5"/>
<circle cx="970.0" cy="760.9" r="3.5" fill="#16a34a" stroke="#fff" stroke-width="1.5"/>
<polyline fill="none" stroke="#ea580c" stroke-width="2" stroke-linejoin="round" points="72.0,243.7 161.8,199.3 251.6,208.8 341.4,733.2 431.2,731.3 521.0,728.4 610.8,730.8 700.6,730.6 790.4,728.6 880.2,725.7 970.0,728.8"/>
<circle cx="72.0" cy="243.7" r="3.5" fill="#ea580c" stroke="#fff" stroke-width="1.5"/>
<circle cx="161.8" cy="199.3" r="3.5" fill="#ea580c" stroke="#fff" stroke-width="1.5"/>
<circle cx="251.6" cy="208.8" r="3.5" fill="#ea580c" stroke="#fff" stroke-width="1.5"/>
<circle cx="341.4" cy="733.2" r="3.5" fill="#ea580c" stroke="#fff" stroke-width="1.5"/>
<circle cx="431.2" cy="731.3" r="3.5" fill="#ea580c" stroke="#fff" stroke-width="1.5"/>
<circle cx="521.0" cy="728.4" r="3.5" fill="#ea580c" stroke="#fff" stroke-width="1.5"/>
<circle cx="610.8" cy="730.8" r="3.5" fill="#ea580c" stroke="#fff" stroke-width="1.5"/>
<circle cx="700.6" cy="730.6" r="3.5" fill="#ea580c" stroke="#fff" stroke-width="1.5"/>
<circle cx="790.4" cy="728.6" r="3.5" fill="#ea580c" stroke="#fff" stroke-width="1.5"/>
<circle cx="880.2" cy="725.7" r="3.5" fill="#ea580c" stroke="#fff" stroke-width="1.5"/>
<circle cx="970.0" cy="728.8" r="3.5" fill="#ea580c" stroke="#fff" stroke-width="1.5"/>
<polyline fill="none" stroke="#dc2626" stroke-width="2" stroke-linejoin="round" points="72.0,142.9 161.8,154.9 251.6,133.2 341.4,717.4 431.2,723.3 521.0,719.0 610.8,724.2 700.6,724.1 790.4,721.9 880.2,718.8 970.0,722.1"/>
<circle cx="72.0" cy="142.9" r="3.5" fill="#dc2626" stroke="#fff" stroke-width="1.5"/>
<circle cx="161.8" cy="154.9" r="3.5" fill="#dc2626" stroke="#fff" stroke-width="1.5"/>
<circle cx="251.6" cy="133.2" r="3.5" fill="#dc2626" stroke="#fff" stroke-width="1.5"/>
<circle cx="341.4" cy="717.4" r="3.5" fill="#dc2626" stroke="#fff" stroke-width="1.5"/>
<circle cx="431.2" cy="723.3" r="3.5" fill="#dc2626" stroke="#fff" stroke-width="1.5"/>
<circle cx="521.0" cy="719.0" r="3.5" fill="#dc2626" stroke="#fff" stroke-width="1.5"/>
<circle cx="610.8" cy="724.2" r="3.5" fill="#dc2626" stroke="#fff" stroke-width="1.5"/>
<circle cx="700.6" cy="724.1" r="3.5" fill="#dc2626" stroke="#fff" stroke-width="1.5"/>
<circle cx="790.4" cy="721.9" r="3.5" fill="#dc2626" stroke="#fff" stroke-width="1.5"/>
<circle cx="880.2" cy="718.8" r="3.5" fill="#dc2626" stroke="#fff" stroke-width="1.5"/>
<circle cx="970.0" cy="722.1" r="3.5" fill="#dc2626" stroke="#fff" stroke-width="1.5"/>
<circle cx="986" cy="48" r="5" fill="#2563eb"/>
<text x="998" y="52" font-size="12" fill="#334155">small</text>
<circle cx="986" cy="70" r="5" fill="#16a34a"/>
<text x="998" y="74" font-size="12" fill="#334155">medium</text>
<circle cx="986" cy="92" r="5" fill="#ea580c"/>
<text x="998" y="96" font-size="12" fill="#334155">large</text>
<circle cx="986" cy="114" r="5" fill="#dc2626"/>
<text x="998" y="118" font-size="12" fill="#334155">stress</text>
</svg>
